<svg width="134" height="15" viewBox="0 0 134 15" fill="none" xmlns="http://www.w3.org/2000/svg">
<path d="M12.5617 5.21179H14.1764V14.9657H13.3737C12.3462 14.9657 11.3468 14.7314 10.3723 14.2598C9.37598 13.782 8.53583 13.1136 7.85809 12.261V14.9688H7.05541C5.24081 14.9688 3.6417 14.3254 2.25498 13.0355C0.7527 11.6426 0 9.89042 0 7.77598V5.21179H1.61472V7.77598C1.61472 9.19706 2.09257 10.4339 3.04517 11.4864C3.92592 12.4515 4.99095 13.0418 6.24337 13.2542V5.21179H7.93304V7.77598C7.93304 9.19706 8.4109 10.4339 9.36349 11.4864C10.2442 12.4515 11.3093 13.0418 12.5617 13.2542V5.21179Z" fill="#231F20"/>
<path d="M22.6311 14.9688C21.2506 14.9688 20.07 14.4784 19.0862 13.4946C18.1023 12.5108 17.612 11.3302 17.612 9.94972C17.612 8.56925 18.1023 7.38866 19.0862 6.40484C20.07 5.42101 21.2506 4.93066 22.6311 4.93066C24.0115 4.93066 25.1921 5.42101 26.1759 6.40484C27.1598 7.38866 27.6501 8.56925 27.6501 9.94972V10.7743H22.6311V9.12831H25.8948C25.7075 8.39122 25.3139 7.78532 24.7143 7.30746C24.1083 6.8296 23.415 6.59223 22.6342 6.59223C21.7097 6.59223 20.9195 6.92018 20.2605 7.57918C19.6015 8.23819 19.2736 9.02837 19.2736 9.95285C19.2736 10.8773 19.6015 11.6675 20.2605 12.3265C20.9195 12.9855 21.7097 13.3135 22.6342 13.3135V14.9688H22.6311Z" fill="#231F20"/>
<path d="M35.9204 2.43834C34.9585 2.44459 34.1745 2.7819 33.5686 3.44715C32.9627 4.1124 32.6566 4.97129 32.6566 6.01758V7.13883H34.3151V8.7754H32.6566V14.9688H31.0419V6.01758C31.0419 4.5153 31.501 3.27537 32.4193 2.29467C33.3375 1.30772 34.4994 0.808004 35.9079 0.801758L35.9204 2.43834Z" fill="#57C8CE"/>
<path d="M37.1791 10.0591C37.1791 8.67546 37.6632 7.49799 38.6315 6.52354C39.5997 5.54284 40.7615 5.05249 42.1201 5.05249V6.55789C41.1675 6.55789 40.3492 6.89833 39.6715 7.5792C39 8.26631 38.6627 9.09396 38.6627 10.0622V14.9719H37.1791V10.0591Z" fill="#57C8CE"/>
<path d="M48.8819 14.9999C47.5296 14.9999 46.374 14.5096 45.412 13.5257C44.45 12.5513 43.9691 11.3676 43.9691 9.98085C43.9691 8.60038 44.45 7.41979 45.412 6.43596C46.374 5.45214 47.5296 4.96179 48.8819 4.96179C50.2343 4.96179 51.3899 5.45214 52.3487 6.43596C53.3107 7.41979 53.7917 8.60038 53.7917 9.98085V14.8156H52.1644V9.98085C52.1644 9.05637 51.8428 8.26619 51.1994 7.60718C50.556 6.94818 49.7845 6.62023 48.8788 6.62023C47.9668 6.62023 47.1922 6.94818 46.5489 7.60718C45.9055 8.26619 45.5838 9.05637 45.5838 9.98085C45.5838 10.9053 45.9055 11.6955 46.5489 12.3545C47.1922 13.0135 47.9699 13.3415 48.8788 13.3415V14.9999H48.8819Z" fill="#57C8CE"/>
<path d="M70.6916 5.09308C72.0502 5.09308 73.2089 5.58344 74.1709 6.56101C75.1328 7.54171 75.6138 8.7223 75.6138 10.1059V14.9532H73.9772V10.1059C73.9772 9.17829 73.6587 8.38811 73.0246 7.73223C72.3813 7.08572 71.6036 6.7609 70.6947 6.7609C69.7921 6.7609 69.0175 7.08572 68.3741 7.73223C67.7307 8.38811 67.409 9.17829 67.409 10.1059V14.9532H65.7818V10.1059C65.7818 9.17829 65.4601 8.38811 64.8168 7.73223C64.1734 7.08572 63.3988 6.7609 62.4962 6.7609C61.5936 6.7609 60.819 7.08572 60.1756 7.73223C59.5322 8.38811 59.2105 9.17829 59.2105 10.1059V14.9657H57.5833V5.22426H59.2105V6.38298C60.1506 5.52097 61.2438 5.08997 62.4962 5.08997C63.3332 5.08997 64.1234 5.29609 64.8605 5.70836C65.5694 6.10501 66.1473 6.65159 66.5939 7.34182C67.0405 6.64846 67.6245 6.10501 68.3398 5.70836C69.0675 5.29922 69.8514 5.09308 70.6916 5.09308Z" fill="#57C8CE"/>
<path d="M83.8592 14.9688C82.4787 14.9688 81.2981 14.4784 80.3143 13.4946C79.3305 12.5108 78.8401 11.3302 78.8401 9.94972C78.8401 8.56925 79.3305 7.38866 80.3143 6.40484C81.2981 5.42101 82.4787 4.93066 83.8592 4.93066C85.2397 4.93066 86.4203 5.42101 87.4041 6.40484C88.3879 7.38866 88.8783 8.56925 88.8783 9.94972V10.7743H83.8592V9.12831H87.123C86.9356 8.39122 86.5421 7.78532 85.9424 7.30746C85.3365 6.8296 84.6431 6.59223 83.8623 6.59223C82.9379 6.59223 82.1477 6.92018 81.4887 7.57918C80.8297 8.23819 80.5017 9.02837 80.5017 9.95285C80.5017 10.8773 80.8297 11.6675 81.4887 12.3265C82.1477 12.9855 82.9379 13.3135 83.8623 13.3135V14.9688H83.8592Z" fill="#57C8CE"/>
<path d="M93.8317 9.75298C93.8317 10.8024 94.1378 11.6582 94.7531 12.3203C95.3683 12.9855 96.1617 13.3197 97.1361 13.3291L97.1267 14.9657C95.6963 14.9594 94.5188 14.4628 93.5943 13.4821C92.6636 12.4983 92.1951 11.2553 92.1951 9.75298V0.801758H93.8317V5.09309H97.1361V6.72968H93.8317V9.75298Z" fill="#231F20"/>
<path d="M104.582 14.9688C103.201 14.9688 102.021 14.4784 101.037 13.4946C100.053 12.5108 99.5628 11.3302 99.5628 9.94972C99.5628 8.56925 100.053 7.38866 101.037 6.40484C102.021 5.42101 103.201 4.93066 104.582 4.93066C105.962 4.93066 107.143 5.42101 108.127 6.40484C109.111 7.38866 109.601 8.56925 109.601 9.94972V10.7743H104.582V9.12831H107.846C107.658 8.39122 107.265 7.78532 106.665 7.30746C106.059 6.8296 105.366 6.59223 104.585 6.59223C103.661 6.59223 102.87 6.92018 102.211 7.57918C101.552 8.23819 101.224 9.02837 101.224 9.95285C101.224 10.8773 101.552 11.6675 102.211 12.3265C102.87 12.9855 103.661 13.3135 104.585 13.3135V14.9688H104.582Z" fill="#231F20"/>
<path d="M113.936 13.4947C112.952 12.5202 112.462 11.3365 112.462 9.9498C112.462 8.56933 112.952 7.38874 113.936 6.40491C114.91 5.43046 116.094 4.94324 117.481 4.94324C118.499 4.94324 119.433 5.22745 120.276 5.799L119.355 7.16386C118.793 6.7797 118.165 6.58918 117.481 6.58918C116.556 6.58918 115.766 6.91713 115.107 7.57613C114.448 8.23514 114.12 9.02532 114.12 9.9498C114.12 10.8743 114.448 11.6645 115.107 12.3235C115.766 12.9825 116.556 13.3104 117.481 13.3104C118.196 13.3104 118.846 13.1012 119.433 12.6826L120.398 14.0381C119.524 14.6597 118.552 14.9689 117.481 14.9689C116.094 14.9689 114.914 14.4754 113.936 13.4947Z" fill="#231F20"/>
<path d="M128.081 5.1055C129.44 5.1055 130.602 5.59272 131.57 6.56718C132.532 7.54787 133.013 8.72846 133.013 10.1027V14.9562H131.376V10.1027C131.376 9.18133 131.055 8.39428 130.411 7.74152C129.768 7.08876 128.99 6.76394 128.081 6.76394C127.172 6.76394 126.392 7.08876 125.739 7.74152C125.095 8.39428 124.774 9.18133 124.774 10.1027V14.9687H123.137V0.811035H124.774V6.38916C125.714 5.53339 126.816 5.1055 128.081 5.1055Z" fill="#231F20"/>
<path d="M53.7948 14.6564H52.1676V14.9999H53.7948V14.6564Z" fill="#5CD2DD"/>
</svg>
