<svg width="65" height="38" viewBox="0 0 65 38" fill="none" xmlns="http://www.w3.org/2000/svg">
<path d="M15.8252 32.6276L15.6753 32.7869C14.3229 34.2298 12.9612 35.6728 11.6088 37.122L7.0895 32.8369C4.83139 30.7006 2.57328 28.5674 0.318298 26.4311C1.7425 24.9538 3.1667 23.4734 4.59402 21.9961C4.9001 22.2897 5.39357 22.7644 6.00885 23.3485C6.46485 23.7826 6.80528 24.1043 6.93334 24.223C8.41688 25.6222 9.90042 27.0276 11.3808 28.4269C12.8644 29.8292 14.3417 31.2284 15.8252 32.6276Z" fill="#231F20"/>
<path d="M36.8853 10.4213L36.8603 10.4494L15.8252 32.6276L15.6784 32.7868L11.5932 37.0969L7.15509 32.8868L11.3808 28.4299L28.3088 10.5806L32.3003 6.36731L36.8353 10.4244L36.8853 10.4213Z" fill="#231F20"/>
<path d="M37.8722 32.2247L37.7222 32.384C36.3699 33.8269 35.0081 35.2699 33.6558 36.7191L26.4286 29.8667L30.6575 25.4098C31.5819 26.2843 32.5064 27.1526 33.4247 28.0271C34.9113 29.4263 36.3886 30.8255 37.8722 32.2247Z" fill="#5CD2DD"/>
<path d="M64.4389 4.20795L60.0016 0L29.1963 32.4841L33.6336 36.6921L64.4389 4.20795Z" fill="#5CD2DD"/>
<path d="M33.4278 28.0271C31.9973 29.5137 30.5637 31.0004 29.1333 32.4871L24.4828 28.0052L28.746 23.5858C30.3076 25.0631 31.8661 26.5435 33.4278 28.0271Z" fill="#5CD2DD"/>
<path d="M11.0007 6.46437L6.72418 10.9005L11.1603 15.1771L15.4369 10.7409L11.0007 6.46437Z" fill="#5CD2DD"/>
</svg>
