<svg width="44" height="44" viewBox="0 0 44 44" fill="none" xmlns="http://www.w3.org/2000/svg">
<path d="M0.6875 8C0.6875 3.96142 3.96142 0.6875 8 0.6875H36C40.0386 0.6875 43.3125 3.96142 43.3125 8V36C43.3125 40.0386 40.0386 43.3125 36 43.3125H8C3.96142 43.3125 0.6875 40.0386 0.6875 36V8Z" stroke="black" stroke-width="1.375" stroke-linecap="square"/>
<path d="M22 31C19.5 31 17.375 30.125 15.625 28.375C13.875 26.625 13 24.5 13 22C13 19.5 13.875 17.375 15.625 15.625C17.375 13.875 19.5 13 22 13C22.2333 13 22.4625 13.0083 22.6875 13.025C22.9125 13.0417 23.1333 13.0667 23.35 13.1C22.6667 13.5833 22.1208 14.2125 21.7125 14.9875C21.3042 15.7625 21.1 16.6 21.1 17.5C21.1 19 21.625 20.275 22.675 21.325C23.725 22.375 25 22.9 26.5 22.9C27.4167 22.9 28.2583 22.6958 29.025 22.2875C29.7917 21.8792 30.4167 21.3333 30.9 20.65C30.9333 20.8667 30.9583 21.0875 30.975 21.3125C30.9917 21.5375 31 21.7667 31 22C31 24.5 30.125 26.625 28.375 28.375C26.625 30.125 24.5 31 22 31ZM22 29C23.4667 29 24.7833 28.5958 25.95 27.7875C27.1167 26.9792 27.9667 25.925 28.5 24.625C28.1667 24.7083 27.8333 24.775 27.5 24.825C27.1667 24.875 26.8333 24.9 26.5 24.9C24.45 24.9 22.7042 24.1792 21.2625 22.7375C19.8208 21.2958 19.1 19.55 19.1 17.5C19.1 17.1667 19.125 16.8333 19.175 16.5C19.225 16.1667 19.2917 15.8333 19.375 15.5C18.075 16.0333 17.0208 16.8833 16.2125 18.05C15.4042 19.2167 15 20.5333 15 22C15 23.9333 15.6833 25.5833 17.05 26.95C18.4167 28.3167 20.0667 29 22 29Z" fill="#595959"/>
</svg>
