<svg width="49" height="49" viewBox="0 0 49 49" fill="none" xmlns="http://www.w3.org/2000/svg">
<rect x="3.5" y="0.399902" width="41.5" height="41.5" rx="8" fill="#007AFF" fill-opacity="0.15"/>
<g filter="url(#filter0_dii_1_1849)">
<path d="M22.8838 29.8379C22.8838 30.6663 23.5554 31.3379 24.3838 31.3379C25.2122 31.3379 25.8838 30.6663 25.8838 29.8379V13.0708C25.8838 12.2424 25.2122 11.5708 24.3838 11.5708C23.5554 11.5708 22.8838 12.2424 22.8838 13.0708V29.8379Z" fill="#00C7BE" stroke="#00C7BE" stroke-linecap="square"/>
<path d="M16 19.9541C15.1716 19.9541 14.5 20.6257 14.5 21.4541C14.5 22.2825 15.1716 22.9541 16 22.9541H32.7671C33.5955 22.9541 34.2671 22.2825 34.2671 21.4541C34.2671 20.6257 33.5955 19.9541 32.7671 19.9541H16Z" fill="#00C7BE" stroke="#00C7BE" stroke-linecap="square"/>
</g>
<defs>
<filter id="filter0_dii_1_1849" x="0" y="0.0708008" width="48.7671" height="48.7671" filterUnits="userSpaceOnUse" color-interpolation-filters="sRGB">
<feFlood flood-opacity="0" result="BackgroundImageFix"/>
<feColorMatrix in="SourceAlpha" type="matrix" values="0 0 0 0 0 0 0 0 0 0 0 0 0 0 0 0 0 0 127 0" result="hardAlpha"/>
<feOffset dy="3"/>
<feGaussianBlur stdDeviation="7"/>
<feComposite in2="hardAlpha" operator="out"/>
<feColorMatrix type="matrix" values="0 0 0 0 0 0 0 0 0 0 0 0 0 0 0 0 0 0 0.25 0"/>
<feBlend mode="normal" in2="BackgroundImageFix" result="effect1_dropShadow_1_1849"/>
<feBlend mode="normal" in="SourceGraphic" in2="effect1_dropShadow_1_1849" result="shape"/>
<feColorMatrix in="SourceAlpha" type="matrix" values="0 0 0 0 0 0 0 0 0 0 0 0 0 0 0 0 0 0 127 0" result="hardAlpha"/>
<feOffset dx="1" dy="1"/>
<feGaussianBlur stdDeviation="2.5"/>
<feComposite in2="hardAlpha" operator="arithmetic" k2="-1" k3="1"/>
<feColorMatrix type="matrix" values="0 0 0 0 0 0 0 0 0 0 0 0 0 0 0 0 0 0 0.15 0"/>
<feBlend mode="normal" in2="shape" result="effect2_innerShadow_1_1849"/>
<feColorMatrix in="SourceAlpha" type="matrix" values="0 0 0 0 0 0 0 0 0 0 0 0 0 0 0 0 0 0 127 0" result="hardAlpha"/>
<feOffset dx="-1" dy="-1"/>
<feGaussianBlur stdDeviation="0.5"/>
<feComposite in2="hardAlpha" operator="arithmetic" k2="-1" k3="1"/>
<feColorMatrix type="matrix" values="0 0 0 0 1 0 0 0 0 1 0 0 0 0 1 0 0 0 0.25 0"/>
<feBlend mode="normal" in2="effect2_innerShadow_1_1849" result="effect3_innerShadow_1_1849"/>
</filter>
</defs>
</svg>
