<svg width="40" height="41" viewBox="0 0 40 41" fill="none" xmlns="http://www.w3.org/2000/svg">
<g clip-path="url(#clip0_478_510)">
<rect y="0.399902" width="40" height="40" rx="20" fill="black"/>
<path d="M16.875 25.6812H12.2969V20.8999H16.875H17.375V20.3999V15.9937C17.375 13.5875 18.0894 11.7812 19.2922 10.577C20.4956 9.3723 22.2455 8.7124 24.4297 8.7124C25.4968 8.7124 26.595 8.80789 27.4309 8.90441C27.8281 8.95028 28.1639 8.99612 28.4062 9.03148V13.0249H26.3828C25.0319 13.0249 24.0643 13.4489 23.4438 14.1673C22.8352 14.8721 22.625 15.7864 22.625 16.6499V20.3999V20.8999H23.125H28.0893L27.356 25.6812H23.125H22.625V26.1812V39.7253C21.7661 39.8409 20.8903 39.8999 20 39.8999C19.1097 39.8999 18.2339 39.8409 17.375 39.7253V26.1812V25.6812H16.875Z" fill="white" stroke="white" stroke-linecap="square"/>
</g>
<defs>
<clipPath id="clip0_478_510">
<rect y="0.399902" width="40" height="40" rx="20" fill="white"/>
</clipPath>
</defs>
</svg>
