<svg width="40" height="41" viewBox="0 0 40 41" fill="none" xmlns="http://www.w3.org/2000/svg">
<rect y="0.399902" width="40" height="40" rx="20" fill="black"/>
<path d="M16.0572 28.6412V28.1412V17.6346V17.1346H15.5572H12.2496H11.7496V17.6346V28.1412V28.6412H12.2496H15.5572H16.0572ZM15.9084 12.9496L15.4923 13.2268L15.9084 12.9496C15.6456 12.5551 15.2718 12.2473 14.8343 12.0651C14.3968 11.8828 13.915 11.8343 13.4499 11.9255C12.9848 12.0168 12.5571 12.2438 12.2209 12.5778C11.8847 12.9119 11.6549 13.3381 11.5607 13.8027C11.4664 14.2672 11.5119 14.7492 11.6914 15.1879C11.8708 15.6266 12.1762 16.0023 12.569 16.2676C12.9607 16.5323 13.4219 16.6752 13.8946 16.6786C14.2116 16.6846 14.5266 16.627 14.821 16.5091C15.1165 16.3908 15.3852 16.2142 15.611 15.9898C15.8368 15.7654 16.0152 15.4979 16.1354 15.2031C16.2552 14.9095 16.3148 14.5949 16.3108 14.2778C16.3105 13.8051 16.1705 13.3431 15.9084 12.9496ZM27.7489 28.6503H28.2488L28.2489 28.1504L28.2504 21.6513V21.6512C28.2504 19.9385 27.7145 18.7178 26.8625 17.9292C26.0193 17.1488 24.9269 16.8474 23.9111 16.8474C22.7728 16.8474 21.8604 17.281 21.2242 17.7992V17.6423V17.1423H20.7242H17.5433H17.0433V17.6423V28.1503V28.6503H17.5433H20.851H21.351V28.1503V22.4532C21.351 21.8032 21.5545 21.3703 21.8138 21.1028C22.0763 20.832 22.4295 20.6952 22.7943 20.6952C23.1646 20.6952 23.4166 20.7961 23.5887 20.9951C23.7735 21.2088 23.9428 21.6226 23.9428 22.4105V28.1503V28.6503H24.4428H27.7489ZM10.624 9.8999H29.376C29.6741 9.8999 29.96 10.0183 30.1708 10.2291C30.3816 10.4399 30.5 10.7258 30.5 11.0239V29.7759C30.5 30.074 30.3816 30.3599 30.1708 30.5707C29.96 30.7815 29.6741 30.8999 29.376 30.8999H10.624C10.3259 30.8999 10.04 30.7815 9.82922 30.5707C9.61842 30.3599 9.5 30.074 9.5 29.7759V11.0239C9.5 10.7258 9.61842 10.4399 9.82922 10.2291C10.04 10.0183 10.3259 9.8999 10.624 9.8999Z" fill="white" stroke="white" stroke-linecap="square"/>
</svg>
