<svg width="40" height="41" viewBox="0 0 40 41" fill="none" xmlns="http://www.w3.org/2000/svg">
<rect y="0.399902" width="40" height="40" rx="20" fill="black"/>
<path d="M18.2955 23.1655L11.8572 30.3999H9.9594L17.5716 21.8441L17.9404 21.4296L17.5998 20.9917L9.36297 10.3999H15.2656L20.3088 16.9565L20.7999 17.595L21.3353 16.9932L27.2007 10.3999H29.0961L22.0434 18.3266L21.6766 18.7388L22.013 19.1762L30.6461 30.3999H24.9202L19.3197 23.1994L18.8279 22.5671L18.2955 23.1655ZM25.0835 29.3097L25.2837 29.5671H25.6097H27.6491H29.0028L28.1775 28.494L15.0143 11.3792L14.8142 11.1189H14.4859H12.2976H10.9345L11.7714 12.1949L25.0835 29.3097Z" fill="white" stroke="white" stroke-width="1.33333" stroke-linecap="square"/>
</svg>
